<svg width="150" height="150" viewBox="0 0 150 150" fill="none" xmlns="http://www.w3.org/2000/svg">
<rect width="150" height="150" rx="75" fill="#D8D8D8"/>
<g clip-path="url(#clip0_25_36)">
<path d="M44.1526 104.964L100.721 48.3953" stroke="#0E1012" stroke-width="5"/>
<path fill-rule="evenodd" clip-rule="evenodd" d="M100.06 45.7532C90.0294 50.2561 80.5726 50.1789 73.5879 48.9626C70.0954 48.3545 67.2376 47.4637 65.2644 46.7304C64.279 46.3641 63.5175 46.0383 63.0115 45.8089C62.7586 45.6943 62.5699 45.6039 62.4492 45.5446C62.3889 45.515 62.3456 45.4932 62.32 45.4801L62.2947 45.4672C62.2955 45.4677 62.2961 45.468 61.1319 47.6804C59.9676 49.8927 59.9686 49.8933 59.9698 49.8938L59.9723 49.8951L59.9786 49.8984L59.9965 49.9077L60.0526 49.9365C60.0992 49.9602 60.1639 49.9927 60.2462 50.0331C60.4107 50.1138 60.6455 50.2261 60.9468 50.3628C61.5493 50.6359 62.4186 51.0068 63.5226 51.4171C65.7284 52.237 68.8842 53.2189 72.73 53.8885C79.1564 55.0076 87.5561 55.2613 96.6581 52.3909C93.2234 62.222 93.2211 70.0237 94.495 75.9674C95.746 81.8046 98.2576 85.791 99.4481 87.6805C99.6654 88.0254 99.8387 88.3005 99.9523 88.5041L104.319 86.0691C104.13 85.73 103.888 85.3414 103.611 84.8966C102.37 82.9033 100.426 79.7806 99.3839 74.9196C98.1281 69.0601 98.2213 60.5804 103.366 49.0528L105.374 44.5545L104.555 43.7351L100.06 45.7532Z" fill="#0E1012"/>
</g>
<defs>
<clipPath id="clip0_25_36">
<rect width="60" height="86" fill="white" transform="translate(65.4265 126.238) rotate(-135)"/>
</clipPath>
</defs>
</svg>
