<svg width="110" height="97" viewBox="0 0 110 97" fill="none" xmlns="http://www.w3.org/2000/svg">
    <rect y="15.4106" width="3.98551" height="3.98551" rx="1.99275" fill="#fafffd" />
    <rect y="30.8213" width="3.98551" height="3.98551" rx="1.99275" fill="#fafffd" />
    <rect y="46.2319" width="3.98551" height="3.98551" rx="1.99275" fill="#fafffd" />
    <rect y="61.6426" width="3.98551" height="3.98551" rx="1.99275" fill="#fafffd" />
    <rect y="77.0532" width="3.98551" height="3.98551" rx="1.99275" fill="#fafffd" />
    <rect x="17.6691" width="3.98551" height="3.98551" rx="1.99275" fill="#fafffd" />
    <rect x="17.6691" y="15.4106" width="3.98551" height="3.98551" rx="1.99275" fill="#fafffd" />
    <rect x="17.6691" y="30.8213" width="3.98551" height="3.98551" rx="1.99275" fill="#fafffd" />
    <rect x="17.6691" y="46.2319" width="3.98551" height="3.98551" rx="1.99275" fill="#fafffd" />
    <rect x="17.6691" y="61.6426" width="3.98551" height="3.98551" rx="1.99275" fill="#fafffd" />
    <rect x="17.6691" y="77.0532" width="3.98551" height="3.98551" rx="1.99275" fill="#fafffd" />
    <rect x="17.6691" y="92.4639" width="3.98551" height="3.98551" rx="1.99275" fill="#fafffd" />
    <rect x="35.3381" width="3.98551" height="3.98551" rx="1.99275" fill="#fafffd" />
    <rect x="35.3381" y="15.4106" width="3.98551" height="3.98551" rx="1.99275" fill="#fafffd" />
    <rect x="35.3381" y="30.8213" width="3.98551" height="3.98551" rx="1.99275" fill="#fafffd" />
    <rect x="35.3381" y="46.2319" width="3.98551" height="3.98551" rx="1.99275" fill="#fafffd" />
    <rect x="35.3381" y="61.6426" width="3.98551" height="3.98551" rx="1.99275" fill="#fafffd" />
    <rect x="35.3381" y="77.0532" width="3.98551" height="3.98551" rx="1.99275" fill="#fafffd" />
    <rect x="35.3381" y="92.4639" width="3.98551" height="3.98551" rx="1.99275" fill="#fafffd" />
    <rect x="53.0072" width="3.98551" height="3.98551" rx="1.99275" fill="#fafffd" />
    <rect x="53.0072" y="15.4106" width="3.98551" height="3.98551" rx="1.99275" fill="#fafffd" />
    <rect x="53.0072" y="30.8213" width="3.98551" height="3.98551" rx="1.99275" fill="#fafffd" />
    <rect x="53.0072" y="46.2319" width="3.98551" height="3.98551" rx="1.99275" fill="#fafffd" />
    <rect x="53.0072" y="61.6426" width="3.98551" height="3.98551" rx="1.99275" fill="#fafffd" />
    <rect x="53.0072" y="77.0532" width="3.98551" height="3.98551" rx="1.99275" fill="#fafffd" />
    <rect x="53.0072" y="92.4639" width="3.98551" height="3.98551" rx="1.99275" fill="#fafffd" />
    <rect x="70.6763" width="3.98551" height="3.98551" rx="1.99275" fill="#fafffd" />
    <rect x="70.6763" y="15.4106" width="3.98551" height="3.98551" rx="1.99275" fill="#fafffd" />
    <rect x="70.6763" y="30.8213" width="3.98551" height="3.98551" rx="1.99275" fill="#fafffd" />
    <rect x="70.6763" y="46.2319" width="3.98551" height="3.98551" rx="1.99275" fill="#fafffd" />
    <rect x="70.6763" y="61.6426" width="3.98551" height="3.98551" rx="1.99275" fill="#fafffd" />
    <rect x="70.6763" y="77.0532" width="3.98551" height="3.98551" rx="1.99275" fill="#fafffd" />
    <rect x="70.6763" y="92.4639" width="3.98551" height="3.98551" rx="1.99275" fill="#fafffd" />
    <rect x="88.3455" width="3.98551" height="3.98551" rx="1.99275" fill="#fafffd" />
    <rect x="88.3455" y="15.4106" width="3.98551" height="3.98551" rx="1.99275" fill="#fafffd" />
    <rect x="88.3455" y="30.8213" width="3.98551" height="3.98551" rx="1.99275" fill="#fafffd" />
    <rect x="88.3455" y="46.2319" width="3.98551" height="3.98551" rx="1.99275" fill="#fafffd" />
    <rect x="88.3455" y="61.6426" width="3.98551" height="3.98551" rx="1.99275" fill="#fafffd" />
    <rect x="88.3455" y="77.0532" width="3.98551" height="3.98551" rx="1.99275" fill="#fafffd" />
    <rect x="88.3455" y="92.4639" width="3.98551" height="3.98551" rx="1.99275" fill="#fafffd" />
    <rect x="106.015" y="15.4106" width="3.98551" height="3.98551" rx="1.99275" fill="#fafffd" />
    <rect x="106.015" y="30.8213" width="3.98551" height="3.98551" rx="1.99275" fill="#fafffd" />
    <rect x="106.015" y="46.2319" width="3.98551" height="3.98551" rx="1.99275" fill="#fafffd" />
    <rect x="106.015" y="61.6426" width="3.98551" height="3.98551" rx="1.99275" fill="#fafffd" />
    <rect x="106.015" y="77.0532" width="3.98551" height="3.98551" rx="1.99275" fill="#fafffd" />
</svg>