<svg width="60" height="86" viewBox="0 0 60 86" fill="none" xmlns="http://www.w3.org/2000/svg">
    <line x1="30.0859" y1="1.08623e-07" x2="30.0859" y2="80" stroke="black" stroke-width="5" />
    <path fill-rule="evenodd" clip-rule="evenodd"
        d="M32.4221 81.4006C36.3305 71.1242 43.072 64.4918 48.871 60.4129C51.7706 58.3734 54.4212 56.9825 56.335 56.1058C57.2908 55.668 58.0596 55.3599 58.5796 55.1643C58.8395 55.0665 59.0369 54.997 59.1641 54.9536C59.2277 54.9319 59.2737 54.9167 59.3011 54.9078L59.3281 54.8991L59.3284 54.899C59.3275 54.8992 59.3266 54.8995 58.5854 52.5119C57.8443 50.1243 57.8432 50.1246 57.842 50.125L57.8393 50.1259L57.8325 50.128L57.8133 50.1341L57.7532 50.1534C57.7035 50.1696 57.6348 50.1924 57.5481 50.222C57.3747 50.2812 57.1292 50.3679 56.8195 50.4843C56.2004 50.7172 55.3234 51.0696 54.2526 51.5601C52.1132 52.5401 49.1874 54.0773 45.9945 56.3232C40.659 60.076 34.5402 65.8361 30.1337 74.3019C25.6108 64.9215 20.0958 59.4033 14.9922 56.1012C9.98011 52.8583 5.38527 51.8155 3.20739 51.3212L3.20739 51.3212C2.80984 51.231 2.49282 51.159 2.2685 51.0953L0.902344 55.9051C1.27583 56.0112 1.72172 56.1148 2.23217 56.2335C4.51917 56.7654 8.10218 57.5985 12.2761 60.2991C17.3074 63.5544 23.2375 69.6164 27.7507 81.4057L29.5118 86.0061L30.6706 86.0061L32.4221 81.4006Z"
        fill="black" />
</svg>