<svg width="271" height="271" viewBox="0 0 271 271" fill="none" xmlns="http://www.w3.org/2000/svg">
<g clip-path="url(#clip0_3988_21522)">
<path d="M24.9226 163.154L24.2035 160.612L39.2114 156.367C40.5509 155.988 41.7583 155.912 42.8338 156.139C43.9092 156.367 44.8162 156.859 45.5546 157.617C46.2931 158.375 46.8343 159.362 47.1784 160.579C47.5031 161.728 47.5837 162.808 47.4201 163.821C47.2496 164.837 46.8472 165.71 46.2131 166.443C45.579 167.176 44.7254 167.695 43.6525 167.998L42.9449 165.496C43.5396 165.328 44.0173 165.034 44.3785 164.615C44.7309 164.191 44.9565 163.683 45.0558 163.095C45.1548 162.506 45.1107 161.88 44.9231 161.217C44.7164 160.486 44.3866 159.907 43.9341 159.482C43.4816 159.056 42.9204 158.794 42.2505 158.696C41.5716 158.592 40.7984 158.664 39.9305 158.909L24.9226 163.154Z" fill="black"/>
<path d="M32.0286 131.358C34.3258 131.223 36.3355 131.52 38.0577 132.251C39.7799 132.981 41.1374 134.043 42.1304 135.436C43.1233 136.829 43.6745 138.453 43.7843 140.312C43.894 142.169 43.5377 143.847 42.7156 145.348C41.8936 146.848 40.6704 148.062 39.0461 148.99C37.422 149.919 35.4613 150.451 33.164 150.586C30.867 150.722 28.8572 150.424 27.1351 149.694C25.4128 148.962 24.0553 147.901 23.0624 146.508C22.0694 145.115 21.5181 143.49 21.4085 141.633C21.2988 139.775 21.655 138.096 22.4771 136.597C23.2992 135.097 24.5224 133.882 26.1467 132.955C27.7708 132.026 29.7315 131.494 32.0286 131.358ZM32.1794 133.911C30.2935 134.022 28.7203 134.431 27.4602 135.139C26.1996 135.84 25.2677 136.745 24.6644 137.855C24.0608 138.958 23.798 140.169 23.8757 141.487C23.9537 142.806 24.3574 143.981 25.087 145.012C25.8163 146.036 26.8483 146.825 28.183 147.38C29.5173 147.927 31.1273 148.145 33.0134 148.034C34.8993 147.922 36.4725 147.517 37.7331 146.816C38.9934 146.108 39.9253 145.203 40.5289 144.1C41.1321 142.99 41.3948 141.776 41.317 140.457C41.2391 139.138 40.8355 137.967 40.1063 136.943C39.3765 135.911 38.3446 135.122 37.0103 134.575C35.6756 134.02 34.0653 133.799 32.1794 133.911Z" fill="black"/>
<path d="M23.154 116.229L44.7016 119.655L44.2867 122.265L22.7391 118.839L23.154 116.229Z" fill="black"/>
<path d="M32.7623 85.2651L53.0694 93.2432L52.1346 95.6229L31.8427 100.425L31.7648 100.623L47.7093 106.887L46.7432 109.346L26.4359 101.368L27.3709 98.9884L47.7179 94.1625L47.7958 93.9641L31.8118 87.6846L32.7623 85.2651Z" fill="black"/>
<path d="M72.5633 69.8944C70.4549 68.341 66.893 67.2644 62.574 67.7836C60.4466 68.0332 58.6086 68.6289 57.124 69.5506L56.2531 68.64C58.1431 65.7116 58.9737 61.7622 58.3773 58.0569C58.0795 56.1831 57.5206 54.6004 56.6385 53.244L57.549 52.3731C60.0119 54.2103 64.0253 55.0211 67.8786 54.4491C69.7732 54.1731 71.4623 53.5954 72.9036 52.7151L73.7744 53.6257C71.8449 56.426 71.1009 61.2472 71.8077 64.764C72.1714 66.5333 72.7341 67.9462 73.474 69.0236L72.5633 69.8944Z" fill="black"/>
<path d="M98.8114 50.6675L86.101 31.9574L88.641 31.0879L98.7098 46.4234L98.9114 46.3544L97.5511 28.0378L100.373 27.0718L110.523 42.3797L110.724 42.3108L109.283 24.0218L111.823 23.1524L113.245 45.7268L110.665 46.6101L100.478 31.7202L100.317 31.7755L101.392 49.7843L98.8114 50.6675Z" fill="black"/>
<path d="M118.057 44.7719L115.594 23.0932L122.919 22.2608C124.613 22.0683 126.036 22.1997 127.188 22.6549C128.34 23.103 129.234 23.7985 129.87 24.7412C130.506 25.6839 130.897 26.7939 131.042 28.0712C131.188 29.3485 131.054 30.5109 130.645 31.5581C130.234 32.6054 129.522 33.4727 128.507 34.1598C127.49 34.8401 126.142 35.2756 124.463 35.4664L118.535 36.1401L118.266 33.7689L124.109 33.105C125.266 32.9734 126.178 32.6982 126.845 32.2793C127.519 31.8596 127.98 31.3212 128.227 30.6642C128.481 29.9991 128.558 29.2327 128.459 28.3647C128.361 27.4967 128.112 26.7566 127.713 26.1442C127.316 25.5318 126.739 25.0898 125.987 24.8179C125.233 24.539 124.271 24.466 123.099 24.5992L118.484 25.1236L120.683 44.4735L118.057 44.7719ZM127.155 33.8738L133.597 43.006L130.548 43.3524L124.191 34.2107L127.155 33.8738Z" fill="black"/>
<path d="M137.756 43.1532L140.01 21.4519L142.638 21.7249L141.519 32.4908L141.773 32.5173L152.641 22.7641L156.074 23.1208L145.944 31.965L153.82 44.8222L150.641 44.4919L144.143 33.6204L141.114 36.3903L140.383 43.4262L137.756 43.1532Z" fill="black"/>
<path d="M157.559 45.8367L164.427 25.1274L171.666 27.5282C173.109 28.0065 174.216 28.6505 174.988 29.4599C175.762 30.2628 176.24 31.1582 176.42 32.1462C176.604 33.1273 176.528 34.1235 176.193 35.1347C175.898 36.0246 175.495 36.7069 174.986 37.1816C174.484 37.6585 173.921 37.9805 173.297 38.1478C172.68 38.3171 172.047 38.3844 171.401 38.3494L171.333 38.5517C171.953 38.8023 172.517 39.2359 173.023 39.8529C173.529 40.4697 173.873 41.2271 174.054 42.1253C174.236 43.0232 174.145 44.0184 173.783 45.1105C173.439 46.1487 172.893 47.0042 172.146 47.6768C171.4 48.3495 170.436 48.7598 169.258 48.9077C168.079 49.0554 166.674 48.8589 165.042 48.318L157.559 45.8367ZM160.805 44.4437L165.78 46.0933C167.418 46.6365 168.686 46.7052 169.583 46.2996C170.49 45.8895 171.095 45.2292 171.396 44.3192C171.629 43.6181 171.665 42.9117 171.504 42.2C171.346 41.4815 170.996 40.8341 170.453 40.2578C169.913 39.6747 169.192 39.2333 168.289 38.9338L163.192 37.2439L160.805 44.4437ZM163.916 35.0597L168.568 36.6021C169.323 36.8524 170.053 36.9299 170.758 36.8345C171.47 36.7413 172.094 36.4842 172.63 36.0635C173.173 35.6448 173.565 35.0715 173.807 34.3434C174.108 33.4333 174.047 32.5564 173.624 31.7126C173.202 30.8621 172.304 30.2088 170.929 29.7527L166.196 28.1836L163.916 35.0597Z" fill="black"/>
<path d="M177.852 53.6325L189.011 34.8834L191.281 36.2347L181.321 52.9697L190.037 58.1565L188.839 60.1705L177.852 53.6325Z" fill="black"/>
<path d="M193.687 63.9774L208.615 48.0654L218.219 57.0746L216.615 58.7838L208.938 51.5823L203.895 56.9588L211.073 63.6939L209.47 65.4032L202.291 58.6681L197.218 64.0758L205.019 71.3939L203.415 73.1032L193.687 63.9774Z" fill="black"/>
<path d="M219.447 101.313C221.671 99.9293 223.989 97.0189 225.105 92.8146C225.66 90.7458 225.787 88.8179 225.482 87.0974L226.65 86.6255C228.67 89.4653 232.032 91.6986 235.695 92.516C237.546 92.933 239.222 92.9997 240.809 92.6821L241.281 93.8504C238.663 95.4584 236.424 98.8867 235.529 102.678C235.085 104.54 234.995 106.323 235.28 107.987L234.112 108.459C232.224 105.631 228.021 103.155 224.492 102.51C222.715 102.193 221.193 102.193 219.919 102.481L219.447 101.313Z" fill="black"/>
<path d="M227.545 133.783L249.337 134.859L248.691 147.925L246.351 147.81L246.866 137.382L239.503 137.019L239.036 146.467L236.694 146.352L237.161 136.903L227.415 136.421L227.545 133.783Z" fill="black"/>
<path d="M231.983 172.221C229.763 171.617 227.954 170.693 226.555 169.45C225.156 168.209 224.209 166.769 223.712 165.132C223.216 163.495 223.212 161.779 223.702 159.983C224.191 158.188 225.064 156.711 226.322 155.552C227.58 154.393 229.127 153.633 230.963 153.272C232.799 152.911 234.827 153.033 237.047 153.638C239.267 154.243 241.076 155.166 242.475 156.409C243.874 157.651 244.821 159.091 245.318 160.728C245.814 162.364 245.817 164.081 245.328 165.876C244.838 167.672 243.965 169.148 242.708 170.307C241.449 171.466 239.903 172.226 238.067 172.588C236.231 172.948 234.203 172.826 231.983 172.221ZM232.655 169.755C234.478 170.252 236.1 170.366 237.519 170.098C238.938 169.836 240.11 169.276 241.036 168.417C241.96 167.565 242.596 166.501 242.943 165.227C243.29 163.952 243.283 162.709 242.921 161.5C242.556 160.296 241.831 159.218 240.743 158.267C239.653 157.322 238.197 156.602 236.375 156.105C234.552 155.609 232.931 155.49 231.512 155.752C230.092 156.02 228.92 156.58 227.996 157.433C227.07 158.292 226.433 159.359 226.086 160.634C225.738 161.908 225.748 163.147 226.111 164.35C226.473 165.56 227.2 166.638 228.289 167.583C229.377 168.535 230.832 169.259 232.655 169.755Z" fill="black"/>
<path d="M220.073 171.944L239.398 182.07L235.976 188.6C235.185 190.11 234.278 191.214 233.255 191.912C232.238 192.614 231.16 192.964 230.022 192.962C228.886 192.958 227.748 192.659 226.609 192.062C225.47 191.465 224.583 190.704 223.946 189.776C223.309 188.85 222.991 187.773 222.992 186.547C222.999 185.324 223.396 183.964 224.18 182.466L226.95 177.183L229.063 178.29L226.334 183.499C225.792 184.53 225.509 185.44 225.481 186.227C225.45 187.021 225.637 187.704 226.042 188.278C226.451 188.86 227.042 189.354 227.816 189.76C228.589 190.166 229.341 190.375 230.071 190.389C230.802 190.403 231.491 190.175 232.138 189.704C232.792 189.236 233.392 188.481 233.94 187.437L236.096 183.323L218.847 174.283L220.073 171.944ZM223.987 185.589L212.814 185.795L214.238 183.078L225.372 182.947L223.987 185.589Z" fill="black"/>
<path d="M190.695 207.31C192.624 209.082 196.049 210.537 200.398 210.488C202.54 210.47 204.432 210.076 206.008 209.32L206.775 210.32C204.58 213.027 203.327 216.863 203.519 220.612C203.613 222.507 203.997 224.14 204.727 225.584L203.728 226.351C201.478 224.259 197.576 223.019 193.683 223.171C191.77 223.24 190.028 223.633 188.5 224.351L187.732 223.352C189.954 220.776 191.215 216.064 190.892 212.491C190.722 210.694 190.315 209.228 189.697 208.077L190.695 207.31Z" fill="black"/>
<path d="M161.575 223.799L166.367 245.085L153.605 247.959L153.09 245.672L163.276 243.379L161.656 236.187L152.427 238.265L151.912 235.978L161.141 233.9L158.997 224.38L161.575 223.799Z" fill="black"/>
<path d="M142.751 227.366L142.856 249.184L135.484 249.218C133.779 249.227 132.378 248.943 131.282 248.365C130.186 247.795 129.372 247.008 128.842 246.002C128.311 244.995 128.043 243.85 128.037 242.564C128.031 241.278 128.288 240.138 128.809 239.141C129.33 238.144 130.132 237.359 131.216 236.786C132.3 236.219 133.686 235.932 135.377 235.923L141.343 235.895L141.355 238.281L135.473 238.309C134.31 238.315 133.373 238.49 132.664 238.835C131.948 239.178 131.432 239.664 131.116 240.291C130.792 240.924 130.632 241.678 130.636 242.551C130.641 243.425 130.807 244.188 131.137 244.839C131.467 245.492 131.992 245.993 132.71 246.345C133.429 246.704 134.379 246.881 135.558 246.875L140.203 246.853L140.109 227.378L142.751 227.366ZM132.528 237.216L127.112 227.44L130.18 227.426L135.511 237.202L132.528 237.216Z" fill="black"/>
<path d="M122.191 226.673L117.603 248.003L104.73 245.235L105.223 242.944L115.513 245.156L117.063 237.949L107.439 235.88L107.932 233.588L117.556 235.658L119.115 228.409L108.658 226.16L109.151 223.869L122.191 226.673Z" fill="black"/>
<path d="M102.878 221.709L93.8124 241.555L81.8354 236.084L82.8092 233.952L92.383 238.325L95.4464 231.62L86.4926 227.529L87.4664 225.398L96.4203 229.488L99.5012 222.743L89.7722 218.299L90.7461 216.167L102.878 221.709Z" fill="black"/>
<path d="M66.5449 194.554C64.8795 196.575 63.6116 200.073 63.8962 204.414C64.0303 206.551 64.5255 208.419 65.3657 209.952L64.4092 210.772C61.5874 208.726 57.6887 207.683 53.9566 208.079C52.0694 208.274 50.4589 208.747 49.0567 209.554L48.2363 208.598C50.2043 206.238 51.2312 202.274 50.8686 198.396C50.6955 196.489 50.2101 194.771 49.4091 193.283L50.3655 192.464C53.0573 194.542 57.8311 195.546 61.381 195.03C63.1673 194.763 64.6086 194.277 65.7245 193.597L66.5449 194.554Z" fill="black"/>
</g>
<defs>
<clipPath id="clip0_3988_21522">
<rect width="243" height="243" fill="white" transform="translate(0 29.6133) rotate(-7)"/>
</clipPath>
</defs>
</svg>
