<svg width="104" height="104" viewBox="0 0 104 104" fill="none" xmlns="http://www.w3.org/2000/svg">
<g clip-path="url(#clip0_25_39)">
<path d="M21.1526 81.9639L77.7211 25.3953" stroke="#FCFCF1" stroke-width="5"/>
<path fill-rule="evenodd" clip-rule="evenodd" d="M77.0595 22.7532C67.0294 27.2561 57.5726 27.1789 50.5879 25.9626C47.0954 25.3545 44.2376 24.4637 42.2644 23.7304C41.279 23.3641 40.5175 23.0383 40.0115 22.8089C39.7586 22.6943 39.5699 22.6039 39.4492 22.5446C39.3889 22.515 39.3456 22.4932 39.32 22.4801L39.2947 22.4672C39.2955 22.4677 39.2961 22.468 38.1319 24.6804C36.9676 26.8927 36.9686 26.8933 36.9698 26.8938L36.9723 26.8951L36.9786 26.8984L36.9965 26.9077L37.0526 26.9365C37.0992 26.9602 37.1639 26.9927 37.2462 27.0331C37.4107 27.1138 37.6455 27.2261 37.9468 27.3628C38.5493 27.6359 39.4186 28.0068 40.5226 28.4171C42.7284 29.237 45.8842 30.2189 49.73 30.8885C56.1564 32.0076 64.5561 32.2613 73.6581 29.3909C70.2234 39.222 70.2211 47.0237 71.495 52.9674C72.746 58.8046 75.2576 62.791 76.4481 64.6805C76.6654 65.0254 76.8387 65.3005 76.9523 65.5041L81.3193 63.0691C81.1303 62.73 80.8882 62.3414 80.6112 61.8966C79.3702 59.9033 77.4257 56.7806 76.3839 51.9196C75.1281 46.0601 75.2213 37.5804 80.3663 26.0528L82.374 21.5545L81.5546 20.7351L77.0595 22.7532Z" fill="#FCFCF1"/>
</g>
<defs>
<clipPath id="clip0_25_39">
<rect width="60" height="86" fill="white" transform="translate(42.4265 103.238) rotate(-135)"/>
</clipPath>
</defs>
</svg>
