<svg width="33" height="16" viewBox="0 0 33 16" fill="none" xmlns="http://www.w3.org/2000/svg">
<path d="M25.17 0.569999C25.45 1.41 25.59 2.53 25.59 3.93C25.59 5.31 25.42 6.64 25.08 7.92C24.74 9.2 24.22 10.42 23.52 11.58C22.84 12.72 21.88 13.65 20.64 14.37C19.42 15.07 18.01 15.42 16.41 15.42C14.01 15.42 12.41 14.75 11.61 13.41C10.17 14.75 8.56 15.42 6.78 15.42C4.38 15.42 2.73 14.91 1.83 13.89C1.23 13.21 0.93 12.2 0.93 10.86C0.93 10.16 1.01 9.38 1.17 8.52L2.58 0.569999H7.68L6.27 8.55C6.21 8.85 6.18 9.12 6.18 9.36C6.18 10.5 6.77 11.07 7.95 11.07C8.77 11.07 9.39 10.72 9.81 10.02C10.23 9.3 10.59 8.05 10.89 6.27L11.91 0.569999H17.01L15.6 8.55C15.54 8.85 15.51 9.12 15.51 9.36C15.51 10.5 16.1 11.07 17.28 11.07C19.36 11.07 20.4 8.89 20.4 4.53C20.4 3.51 20.32 2.38 20.16 1.14L20.07 0.569999H25.17ZM26.7809 13.26C26.7809 11.98 27.0609 11.05 27.6209 10.47C28.1809 9.87 29.0709 9.57 30.2909 9.57C31.9709 9.57 32.8109 10.31 32.8109 11.79C32.8109 13.05 32.5209 13.97 31.9409 14.55C31.3809 15.13 30.4909 15.42 29.2709 15.42C27.6109 15.42 26.7809 14.7 26.7809 13.26Z" fill="#9EFF7C"/>
</svg>
