<svg width="40" height="40" viewBox="0 0 40 40" fill="none" xmlns="http://www.w3.org/2000/svg">
<rect width="40" height="40" rx="20" fill="white"/>
<g clip-path="url(#clip0_25_36)">
<path d="M11.7739 27.9902L26 14" stroke="#0E1012" stroke-width="1.5" stroke-linecap="round"/>
<path fill-rule="evenodd" clip-rule="evenodd" d="M26.6825 12.2007C24.0078 13.4015 21.486 13.3809 19.6234 13.0565C18.692 12.8944 17.93 12.6568 17.4038 12.4613C17.141 12.3636 16.9379 12.2767 16.803 12.2156C16.7356 12.185 16.6852 12.1609 16.6531 12.1451C16.637 12.1372 16.6254 12.1314 16.6186 12.1279L16.6119 12.1244C16.6121 12.1246 16.6122 12.1246 16.3018 12.7146C15.9913 13.3046 15.9916 13.3047 15.9919 13.3049L15.9926 13.3052L15.9942 13.3061L15.999 13.3086L16.014 13.3162C16.0264 13.3226 16.0437 13.3312 16.0656 13.342C16.1094 13.3635 16.1721 13.3935 16.2524 13.4299C16.4131 13.5027 16.6449 13.6017 16.9393 13.7111C17.5275 13.9297 18.3691 14.1915 19.3946 14.3701C21.1083 14.6685 23.3482 14.7362 25.7754 13.9707C24.8595 16.5924 24.8589 18.6728 25.1986 20.2578C25.5322 21.8144 26.202 22.8774 26.5194 23.3813C26.5774 23.4733 26.6236 23.5466 26.6539 23.6009L27.8184 22.9516C27.768 22.8612 27.7035 22.7576 27.6296 22.6389C27.2986 22.1074 26.7801 21.2747 26.5023 19.9784C26.1674 18.4159 26.1923 16.1546 27.5643 13.0806L28.0997 11.881L27.8812 11.6625L26.6825 12.2007Z" fill="#0E1012"/>
</g>
<defs>
<clipPath id="clip0_25_36">
<rect width="16" height="22.9333" fill="white" transform="translate(17.447 33.6631) rotate(-135)"/>
</clipPath>
</defs>
</svg>
