<svg width="146" height="32" viewBox="0 0 146 32" fill="none" xmlns="http://www.w3.org/2000/svg">
<path d="M32.56 11.76C32.9333 12.88 33.12 14.3733 33.12 16.24C33.12 18.08 32.8933 19.8533 32.44 21.56C31.9867 23.2667 31.2933 24.8933 30.36 26.44C29.4533 27.96 28.1733 29.2 26.52 30.16C24.8933 31.0933 23.0133 31.56 20.88 31.56C17.68 31.56 15.5467 30.6667 14.48 28.88C12.56 30.6667 10.4133 31.56 8.04 31.56C4.84 31.56 2.64 30.88 1.44 29.52C0.64 28.6133 0.24 27.2667 0.24 25.48C0.24 24.5467 0.346667 23.5067 0.56 22.36L2.44 11.76H9.24L7.36 22.4C7.28 22.8 7.24 23.16 7.24 23.48C7.24 25 8.02667 25.76 9.6 25.76C10.6933 25.76 11.52 25.2933 12.08 24.36C12.64 23.4 13.12 21.7333 13.52 19.36L14.88 11.76H21.68L19.8 22.4C19.72 22.8 19.68 23.16 19.68 23.48C19.68 25 20.4667 25.76 22.04 25.76C24.8133 25.76 26.2 22.8533 26.2 17.04C26.2 15.68 26.0933 14.1733 25.88 12.52L25.76 11.76H32.56ZM54.7878 15.84C54.7878 16.7467 54.6278 17.6267 54.3078 18.48C54.0145 19.3333 53.7211 19.96 53.4278 20.36L52.9878 20.92H46.9478C47.6145 20.3067 47.9478 19.5467 47.9478 18.64C47.9478 18.16 47.7878 17.7733 47.4678 17.48C47.1745 17.16 46.7611 17 46.2278 17C45.3211 17 44.5345 17.4533 43.8678 18.36L41.6278 31H34.8278L38.2278 11.76H44.5478L44.0678 14.44C45.5878 12.28 47.4278 11.2 49.5878 11.2C51.3211 11.2 52.6145 11.6133 53.4678 12.44C54.3478 13.2667 54.7878 14.4 54.7878 15.84ZM75.0947 25.88C75.708 25.88 76.2547 25.7467 76.7347 25.48L76.5347 30C75.2814 31.04 73.748 31.56 71.9347 31.56C70.1214 31.56 68.7747 31.08 67.8947 30.12C67.0414 29.16 66.3747 27.5467 65.8947 25.28L65.7747 24.72C65.2147 24.8 64.3747 24.8667 63.2547 24.92L62.1747 31H55.3747L60.7347 0.639997H67.5347L65.2147 13.8C66.788 12.0667 68.9214 11.2 71.6147 11.2C73.428 11.2 74.7614 11.6533 75.6147 12.56C76.4947 13.44 76.9347 14.6267 76.9347 16.12C76.9347 19 75.428 21.2533 72.4147 22.88L72.8547 24.36C73.148 25.3733 73.8947 25.88 75.0947 25.88ZM68.1747 16.64C66.7347 16.64 65.4547 17.32 64.3347 18.68L63.8947 21.32C67.8414 21.16 69.8147 20.1067 69.8147 18.16C69.8147 17.7067 69.668 17.3467 69.3747 17.08C69.108 16.7867 68.708 16.64 68.1747 16.64Z" fill="#9EFF7C"/>
<path d="M93.7172 11.2C96.3572 11.2 98.2105 11.9333 99.2772 13.4C100.077 14.44 100.477 15.7067 100.477 17.2C100.477 17.8133 100.411 18.4533 100.277 19.12L99.4772 23.6C99.0239 26.16 97.8372 28.1333 95.9172 29.52C94.0239 30.88 91.6239 31.56 88.7172 31.56C85.8372 31.56 83.6239 30.9867 82.0772 29.84C80.8505 28.9333 80.2372 27.6667 80.2372 26.04C80.2372 25.6133 80.2772 25.1733 80.3572 24.72L84.5972 0.639997H91.3972L89.3572 12.28C90.4772 11.56 91.9305 11.2 93.7172 11.2ZM93.3572 19.72C93.3839 19.5067 93.3972 19.2133 93.3972 18.84C93.3972 18.44 93.2239 18.0267 92.8772 17.6C92.5572 17.1467 91.8372 16.92 90.7172 16.92C89.6239 16.92 88.8372 17.2533 88.3572 17.92L87.1972 24.6C87.5172 25.4 88.1839 25.8 89.1972 25.8C91.2505 25.8 92.4639 24.7733 92.8372 22.72L93.3572 19.72ZM110.25 24.84C110.25 25.5333 110.596 25.88 111.29 25.88C112.01 25.88 112.61 25.7467 113.09 25.48L112.89 30C111.61 31.04 110.17 31.56 108.57 31.56C106.143 31.56 104.57 31 103.85 29.88C103.396 29.16 103.17 28.3733 103.17 27.52C103.17 26.6667 103.223 25.92 103.33 25.28L107.69 0.639997H114.49L110.29 24.36C110.263 24.52 110.25 24.68 110.25 24.84ZM123.663 31.56C118.116 31.56 115.343 29.64 115.343 25.8C115.343 25.2667 115.396 24.6933 115.503 24.08L116.343 19.12C116.796 16.56 117.97 14.6 119.863 13.24C121.783 11.8533 124.316 11.16 127.463 11.16C132.823 11.16 135.503 13.1867 135.503 17.24C135.503 17.8267 135.45 18.4667 135.343 19.16L134.863 22H122.663L122.503 22.92C122.45 23.24 122.423 23.5333 122.423 23.8C122.423 25.2667 123.29 26 125.023 26C125.663 26 126.21 25.8 126.663 25.4C127.116 25 127.383 24.5333 127.463 24L134.103 24.08C133.223 29.0667 129.743 31.56 123.663 31.56ZM128.463 19.56C128.57 19.1067 128.623 18.6933 128.623 18.32C128.623 17.92 128.45 17.52 128.103 17.12C127.756 16.72 127.196 16.52 126.423 16.52C125.676 16.52 124.983 16.7733 124.343 17.28C123.73 17.7867 123.303 18.5467 123.063 19.56H128.463ZM136.973 28.68C136.973 26.9733 137.347 25.7333 138.093 24.96C138.84 24.16 140.027 23.76 141.653 23.76C143.893 23.76 145.013 24.7467 145.013 26.72C145.013 28.4 144.627 29.6267 143.853 30.4C143.107 31.1733 141.92 31.56 140.293 31.56C138.08 31.56 136.973 30.6 136.973 28.68Z" fill="white"/>
</svg>
